<svg id="Layer_1" enable-background="new 0 0 128 128" viewBox="0 0 128 128" xmlns="http://www.w3.org/2000/svg"><g><g><g><g><g><g><g><circle cx="64" cy="64" fill="#1597ff" r="64"/></g></g></g></g></g></g><path d="m64 128c18.2 0 34.6-7.6 46.3-19.8-6.7-13.4-21.5-22.5-46.3-22.5s-39.6 9.1-46.3 22.5c11.7 12.2 28.1 19.8 46.3 19.8z" fill="#f85863"/><g><g><path d="m52.6 71.6v17.1c0 6.1 5 11.1 11.1 11.1s11.1-5 11.1-11.1v-17.1z" fill="#fff"/></g><g><path d="m52.6 73.6v6.6c3.1 2.9 6.8 5 11.1 6.2s8 1 11.1-.2v-12.6z" fill="#01277b"/></g><g><g fill="#fff"><circle cx="42.3" cy="61.3" r="6.3"/><circle cx="85.1" cy="61.3" r="6.3"/></g><g><g><ellipse cx="63.6" cy="42.9" fill="#01277b" rx="29" ry="29.7"/></g><g><ellipse cx="63.7" cy="56" fill="#fff" rx="22" ry="27.5"/></g><g fill="#01277b"><ellipse cx="59.9" cy="27.9" rx="17" ry="13.4" transform="matrix(.995 -.101 .101 .995 -2.525 6.222)"/><ellipse cx="81.8" cy="29.1" rx="13.5" ry="10" transform="matrix(.993 -.12 .12 .993 -2.912 10.055)"/></g></g><g fill="#01277b"><g><circle cx="54.2" cy="52.2" r="2.1"/><circle cx="73.2" cy="52.2" r="2.1"/></g><path d="m73.2 62c0 5.3-4.3 9.5-9.5 9.5-5.3 0-9.5-4.3-9.5-9.5z"/></g></g></g></g></svg>