<svg xmlns="http://www.w3.org/2000/svg" version="1.1" xmlns:xlink="http://www.w3.org/1999/xlink" width="512" height="512" x="0" y="0" viewBox="0 0 100 100" style="enable-background:new 0 0 512 512" xml:space="preserve" class=""><g><path d="M50 91a10.183 10.183 0 0 1-7.242-2.999V88L9.629 54.871C4.71 49.952 2 43.412 2 36.454v-.407c0-6.958 2.71-13.499 7.629-18.417S21.09 10 28.045 10h.41c6.955 0 13.497 2.71 18.416 7.629L50 20.758l3.129-3.129C58.048 12.71 64.59 10 71.545 10h.41c6.955 0 13.497 2.71 18.416 7.629S98 29.088 98 36.046v.407c0 6.958-2.71 13.499-7.629 18.417L57.242 88A10.18 10.18 0 0 1 50 91zm-3-7.242c1.608 1.605 4.395 1.601 6-.001L86.129 50.63A19.925 19.925 0 0 0 92 36.454v-.407c0-5.355-2.086-10.389-5.871-14.175S77.308 16 71.955 16h-.41a19.91 19.91 0 0 0-14.174 5.871l-5.25 5.25a2.998 2.998 0 0 1-4.242 0l-5.25-5.25A19.91 19.91 0 0 0 28.455 16h-.41c-5.353 0-10.389 2.084-14.174 5.871S8 30.691 8 36.046v.407a19.919 19.919 0 0 0 5.871 14.175z" fill="#ffffff" opacity="1" data-original="#000000"></path></g></svg>